# xmcd
#
# Track frame offsets: 
#        150
#        21751
#        41633
#        58509
#        75812
#        93396
#        117792
#        136933
#        156339
#        168596
#        188783
#        210644
#        231845
#        253169
#        268740
#        284106
#        303622
#
# Disc length: 4326 seconds
#
# Revision: 6
# Processed by: cddbd v1.5.2PL0 Copyright (c) Steve Scherf et al.
# Submitted via: ExactAudioCopyFreeDBPlugin 1.0
#
DISCID=f010e411
DTITLE=Joe Cocker - The Life Of A Man - The Ultimate Hits 1968-2013 [D
DTITLE=isc 2]
DYEAR=2015
DGENRE=Blues
TTITLE0=When The Night Comes
TTITLE1=Come Together
TTITLE2=First We Take Manhattan
TTITLE3=Summer In The City
TTITLE4=Up Where We Belong (with Jennifer Warnes)
TTITLE5=Don't You Love Me Anymore
TTITLE6=Unforgiven
TTITLE7=Have A Little Faith In Me
TTITLE8=You Are So Beautiful
TTITLE9=Woman To Woman
TTITLE10=The Simple Things
TTITLE11=N'Oubliez Jamais
TTITLE12=Tonight
TTITLE13=Night Calls
TTITLE14=Hard Knocks
TTITLE15=I Come In Peace
TTITLE16=Performance
EXTD=YEAR: 2015
EXTT0=
EXTT1=
EXTT2=
EXTT3=
EXTT4=
EXTT5=
EXTT6=
EXTT7=
EXTT8=
EXTT9=
EXTT10=
EXTT11=
EXTT12=
EXTT13=
EXTT14=
EXTT15=
EXTT16=
PLAYORDER=
